# AST/ASF file generated using VICON BodyLanguage
# -----------------------------------------------
:version 1.10
:name VICON
:units
  mass 1.0
  length 0.45
  angle deg
:documentation
   .ast/.asf automatically generated from VICON data using
   VICON BodyBuilder and BodyLanguage model FoxedUp or BRILLIANT.MOD
:root
   order TX TY TZ RX RY RZ
   axis XYZ
   position 0 0 0  
   orientation 0 0 0 
:bonedata
  begin
     id 1 
     name lhipjoint
     direction 0.722297 -0.617336 0.311742 
     length 2.6635 
     axis 0 0 0  XYZ
  end
  begin
     id 2 
     name lfemur
     direction 0.34202 -0.939693 0  
     length 7.39349  
     axis 0 0 20  XYZ
    dof rx ry rz
    limits (-160.0 20.0)
           (-70.0 70.0)
           (-60.0 70.0)
  end
  begin
     id 3 
     name ltibia
     direction 0.34202 -0.939693 0   
     length 7.36294   
     axis 0 0 20   XYZ
    dof rx
    limits (-10.0 170.0)
  end
  begin
     id 4 
     name lfoot
     direction 0.104879 -0.288152 0.951824   
     length 2.16981   
     axis -90 7.62852e-016 20   XYZ
    dof rx rz
    limits (-45.0 90.0)
           (-70.0 20.0)
  end
  begin
     id 5 
     name ltoes
     direction 1.53586e-011 -4.21895e-011 1   
     length 1.08218   
     axis -90 7.62852e-016 20   XYZ
    dof rx
    limits (-90.0 20.0)
  end
  begin
     id 6 
     name rhipjoint
     direction -0.75102 -0.589393 0.297631   
     length 2.78977  
     axis 0 0 0  XYZ 
  end
  begin
     id 7 
     name rfemur
     direction -0.34202 -0.939693 0   
     length 7.46076   
     axis 0 0 -20   XYZ
    dof rx ry rz
    limits (-160.0 20.0)
           (-70.0 70.0)
           (-70.0 60.0)
  end
  begin
     id 8 
     name rtibia
     direction -0.34202 -0.939693 0   
     length 7.31726   
     axis 0 0 -20   XYZ
    dof rx
    limits (-10.0 170.0)
 end
 begin
     id 9 
     name rfoot
     direction -0.107991 -0.296704 0.948844   
     length 2.09388  
     axis -90 -7.62852e-016 -20   XYZ
    dof rx rz
    limits (-45.0 90.0)
           (-20.0 70.0)
  end
  begin
     id 10 
     name rtoes
     direction -1.53559e-011 -4.21911e-011 1   
     length 1.04433   
     axis -90 -7.62852e-016 -20   XYZ
    dof rx
    limits (-90.0 20.0)
  end
  begin
     id 11 
     name lowerback
     direction 0.0165164 0.98272 0.184358   
     length 1.71896   
     axis 0 0 0   XYZ
    dof rx ry rz
    limits (-20.0 45.0)
           (-30.0 30.0)
           (-30.0 30.0)
  end
  begin
     id 12 
     name upperback
     direction -0.00887249 0.992297 0.123566   
     length 1.71504   
     axis 0 0 0   XYZ
    dof rx ry rz
    limits (-20.0 45.0)
           (-30.0 30.0)
           (-30.0 30.0)
  end
  begin
     id 13 
     name thorax
     direction -0.0157026 0.998908 0.0440032   
     length 1.77022   
     axis 0 0 0   XYZ
    dof rx ry rz
    limits (-20.0 45.0)
           (-30.0 30.0)
           (-30.0 30.0)
  end
  begin
     id 14 
     name lowerneck
     direction -0.0238856 0.998137 0.0561411   
     length 1.89341   
     axis 0 0 0   XYZ
    dof rx ry rz
    limits (-20.0 45.0)
           (-30.0 30.0)
           (-30.0 30.0)
  end
  begin
     id 15 
     name upperneck
     direction 0.0276574 0.952253 -0.304056   
     length 1.86999   
     axis 0 0 0   XYZ
    dof rx ry rz
    limits (-20.0 45.0)
           (-30.0 30.0)
           (-30.0 30.0)
  end
  begin
     id 16
     name head
     direction 0.00800083 0.994258 -0.106712  
     length 1.91492  
     axis 0 0 0   XYZ
    dof rx ry rz
    limits (-20.0 45.0)
           (-30.0 30.0)
           (-30.0 30.0)
  end
  begin
     id 17 
     name lclavicle
     direction 0.97203 0.225407 0.06595  
     length 3.34889  
     axis 0 0 0   XYZ
    dof ry rz
    limits (-20.0 10.0)
           (0.0 20.0)
  end
  begin
     id 18 
     name lhumerus
     direction 1 -4.48973e-011 2.20267e-027   
     length 4.85645   
     axis 180 -30 -90   XYZ
    dof rx ry rz
    limits (-60.0 90.0)
           (-90.0 90.0)
           (-90.0 90.0)
  end
  begin
     id 19
     name lradius
     direction 1 -4.4897e-011 4.60472e-027   
     length 2.79874   
     axis 180 -30 -90   XYZ
    dof rx
    limits (-10.0 170.0)
  end
  begin
     id 20
     name lwrist
     direction 1 -4.48952e-011 1.14928e-026   
     length 1.39937   
     axis -6.29373e-015 90 90   XYZ
    dof ry
    limits (-180.0 0.0)
 end
  begin
     id 21 
     name lhand
     direction 1 -4.48967e-011 2.29886e-026   
     length 0.573398   
     axis -1.46689e-014 90 90   XYZ
    dof rx rz
    limits (-90.0 90.0)
           (-45.0 45.0)
  end
  begin
     id 22 
     name lfingers
     direction 1 -4.48955e-011 4.59726e-026   
     length 0.462289   
     axis -2.93383e-014 90 90   XYZ
    dof rx
    limits (0.0 90.0)
  end
  begin
     id 23
     name lthumb
     direction 0.707107 -6.34866e-011 0.707107   
     length 0.663757   
     axis -90 45 5.69224e-014   XYZ
    dof rx rz
    limits (-45.0 45.0)
           (-45.0 45.0)
  end
  begin
     id 24 
     name rclavicle
     direction -0.981571 0.157346 0.108443   
     length 3.35257  
     axis 0 0 0   XYZ 
    dof ry rz
    limits (-10.0 20.0)
           (-20.0 0.0)
  end
  begin
     id 25 
     name rhumerus
     direction -1 -4.48967e-011 8.58308e-029  
     length 4.67018   
     axis 180 30 90   XYZ
    dof rx ry rz
    limits (-90.0 60.0)
           (-90.0 90.0)
           (-90.0 90.0)
  end
  begin
     id 26 
     name rradius
     direction -1 -4.48958e-011 4.52548e-027   
     length 2.65534   
     axis 180 30 90   XYZ
    dof rx
    limits (-10.0 170.0)
  end
  begin
     id 27 
     name rwrist
     direction -1 -4.48977e-011 1.14952e-026   
     length 1.32767   
     axis -6.29373e-015 -90 -90   XYZ
    dof ry
    limits (-180.0 0.0)
  end
  begin
     id 28
     name rhand
     direction -1 -4.48924e-011 2.29804e-026   
     length 0.594069   
     axis -1.46689e-014 -90 -90   XYZ
    dof rx rz
    limits (-90.0 90.0)
           (-45.0 45.0)
  end
  begin
     id 29
     name rfingers
     direction -1 -4.48998e-011 4.59888e-026   
     length 0.478954   
     axis -2.93383e-014 -90 -90   XYZ
    dof rx
    limits (0.0 90.0)
  end
  begin
     id 30
     name rthumb
     direction -0.707107 -6.34933e-011 0.707107   
     length 0.687685   
     axis -90 -45 -5.69224e-014   XYZ
    dof rx rz
    limits (-45.0 45.0)
           (-45.0 45.0)
  end
:hierarchy
  begin
    root lhipjoint rhipjoint lowerback
    lhipjoint lfemur
    lfemur ltibia
    ltibia lfoot
    lfoot ltoes
    rhipjoint rfemur
    rfemur rtibia
    rtibia rfoot
    rfoot rtoes
    lowerback upperback
    upperback thorax
    thorax lowerneck lclavicle rclavicle
    lowerneck upperneck
    upperneck head
    lclavicle lhumerus
    lhumerus lradius
    lradius lwrist
    lwrist lhand lthumb
    lhand lfingers
    rclavicle rhumerus
    rhumerus rradius
    rradius rwrist
    rwrist rhand rthumb
    rhand rfingers
  end

#!OML:ASF E:\pregnant2\Project 1\Capture day 1\Session 1\pregnant2.ASF
:FULLY-SPECIFIED
:DEGREES
599
root 9.50591 2.60549 12.6313 -150.928 7.35298 93.3316
lowerback -7.60133 -2.03969 -7.36593
upperback -13.7045 -5.93678 -9.87613
thorax -11.3285 -4.17456 -6.40493
lowerneck -14.9493 -3.32803 -2.8056
upperneck 38.8223 13.2211 -21.8212
head 19.8498 5.20572 -6.51092
rclavicle -2.70347e-014 -1.49486e-013
rhumerus 22.7053 0.0938016 19.7139
rradius 69.3178
rwrist -2.30656
rhand -7.8659 -18.7117
rfingers 7.12502
rthumb 18.0379 -47.8953
lclavicle -2.70347e-014 -1.49486e-013
lhumerus 138.431 -86.842 -50.8519
lradius 85.855
lwrist -11.0741
lhand -46.2122 48.302
lfingers 7.12502
lthumb -18.9497 77.399
rfemur -86.6817 16.4298 23.3187
rtibia 115.693
rfoot 17.796 -6.79503
rtoes -2.77609
lfemur -66.8423 1.40346 -28.7234
ltibia 59.8008
lfoot 14.2117 -7.46276
ltoes -13.9887
600
root 9.50648 2.61557 12.6236 -150.862 7.4511 93.5573
lowerback -7.5481 -2.04491 -7.41003
upperback -13.6653 -5.94209 -9.87
thorax -11.3078 -4.16888 -6.36941
lowerneck -14.8747 -3.37731 -2.89844
upperneck 38.8224 13.3181 -21.9295
head 19.8735 5.25174 -6.52429
rclavicle 6.20208e-014 -9.22361e-014
rhumerus 22.2333 0.827785 19.7808
rradius 71.1307
rwrist -3.30761
rhand -7.42198 -19.1322
rfingers 7.12502
rthumb 18.4649 -48.2758
lclavicle 6.20208e-014 -9.22361e-014
lhumerus 139.886 -86.6048 -52.1533
lradius 85.7176
lwrist -10.9325
lhand -46.6012 49.6291
lfingers 7.12502
lthumb -19.3239 78.689
rfemur -86.6402 16.6 23.5278
rtibia 115.689
rfoot 17.7234 -6.72828
rtoes -2.79568
lfemur -66.82 1.46823 -28.5573
ltibia 59.6856
lfoot 14.1747 -7.37731
ltoes -14.0087
601
root 9.50522 2.62561 12.6166 -150.765 7.57927 93.7458
lowerback -7.52843 -2.02854 -7.46039
upperback -13.6178 -5.92783 -9.92293
thorax -11.2662 -4.16473 -6.3994
lowerneck -14.8826 -3.45242 -2.9498
upperneck 38.866 13.3741 -22.0222
head 19.9414 5.28125 -6.55409
rclavicle -8.5875e-014 -7.31528e-014
rhumerus 21.742 1.6714 19.8105
rradius 72.9364
rwrist -4.59374
rhand -7.09753 -19.6383
rfingers 7.12502
rthumb 18.777 -48.7521
lclavicle -8.5875e-014 -7.31528e-014
lhumerus 140.613 -86.334 -52.7759
lradius 85.5761
lwrist -10.9039
lhand -46.6879 49.9029
lfingers 7.12502
lthumb -19.4073 78.9544
rfemur -86.6742 16.7683 23.6899
rtibia 115.701
rfoot 17.8978 -6.67446
rtoes -3.07437
lfemur -66.8335 1.52106 -28.4316
ltibia 59.5836
lfoot 14.1734 -7.30353
ltoes -13.8928
602
root 9.50537 2.63538 12.6104 -150.704 7.72232 93.9124
lowerback -7.46015 -2.02213 -7.50413
upperback -13.5756 -5.93526 -9.97831
thorax -11.2628 -4.17195 -6.43236
lowerneck -14.8242 -3.50618 -3.02791
upperneck 38.8505 13.4408 -22.1273
head 19.9519 5.31189 -6.57455
rclavicle 2.38542e-014 -1.08139e-013
rhumerus 21.2759 2.54615 19.8811
rradius 74.7271
rwrist -5.63165
rhand -6.48219 -19.7631
rfingers 7.12502
rthumb 19.3688 -48.8184
lclavicle 2.38542e-014 -1.08139e-013
lhumerus 141.26 -86.0314 -53.3669
lradius 85.481
lwrist -10.8579
lhand -46.3955 48.8434
lfingers 7.12502
lthumb -19.1261 77.923
rfemur -86.7234 16.9235 23.808
rtibia 115.694
rfoot 17.9402 -6.59034
rtoes -3.06361
lfemur -66.8053 1.57395 -28.3215
ltibia 59.4828
lfoot 14.1311 -7.2206
ltoes -13.9588
603
root 9.50401 2.64494 12.6039 -150.597 7.84829 94.0712
lowerback -7.44074 -2.01339 -7.58622
upperback -13.5326 -5.93197 -10.0267
thorax -11.2249 -4.1699 -6.43931
lowerneck -14.7777 -3.56715 -3.08799
upperneck 38.8778 13.5046 -22.2087
head 19.9912 5.34763 -6.59168
rclavicle -6.20208e-014 -9.54166e-015
rhumerus 20.8499 3.43239 19.9195
rradius 76.443
rwrist -6.53002
rhand -5.84934 -20.1605
rfingers 7.12502
rthumb 19.9772 -49.1536
lclavicle -6.20208e-014 -9.54166e-015
lhumerus 141.644 -85.7259 -53.6202
lradius 85.3274
lwrist -10.8508
lhand -46.4628 49.3429
lfingers 7.12502
lthumb -19.1907 78.4161
rfemur -86.8001 17.0634 23.9389
rtibia 115.705
rfoot 18.0507 -6.52379
rtoes -3.27902
lfemur -66.8337 1.59454 -28.2039
ltibia 59.3932
lfoot 14.1473 -7.16601
ltoes -13.8633
